#!OML:ASF F:\VICON\USERDATA\INSTALL\rory3\rory3.ASF
:FULLY-SPECIFIED
:DEGREES
976
root -2.80432 23.692 -2.45183 -184.921 -176.317 187.371
lowerback 9.1853 1.33895 -4.24156
upperback 3.19928 1.33514 -2.54025
thorax -1.86112 0.660862 -0.386868
lowerneck -7.80408 0.288041 -7.53438
upperneck 32.2266 0.238504 5.58409
head 11.7676 -0.121517 3.45474
rclavicle -9.74666e-015 4.02539e-015
rhumerus -32.5095 2.8289 -80.4208
rradius 43.3979
rwrist 9.07746
rhand -24.396 2.43019
rfingers 7.12502
rthumb 2.09489 -27.5393
lclavicle -9.74666e-015 4.02539e-015
lhumerus -35.2477 21.155 71.9407
lradius 25.7413
lwrist 1.55461
lhand -24.0061 23.4394
lfingers 7.12502
lthumb 2.47143 53.4048
rfemur -20.5797 6.05013 20.6943
rtibia 68.7773
rfoot -35.1561 0.102646
rtoes 2.8827
lfemur -23.2771 6.33461 -27.1548
ltibia 28.4308
lfoot 13.4393 20.8672
ltoes 1.627
977
root -2.79548 23.6512 -2.41544 -184.954 -176.221 187.367
lowerback 9.18305 1.39046 -4.2735
upperback 3.21142 1.40089 -2.55347
thorax -1.84921 0.693243 -0.389612
lowerneck -7.80026 0.24854 -7.57863
upperneck 32.145 0.179784 5.62218
head 11.7385 -0.147281 3.46733
rclavicle 1.47629e-014 -4.40805e-014
rhumerus -32.4988 2.81162 -80.3429
rradius 43.1969
rwrist 8.96796
rhand -24.2252 2.42049
rfingers 7.12502
rthumb 2.2599 -27.5473
lclavicle 1.47629e-014 -4.40805e-014
lhumerus -35.2932 20.7854 72.1465
lradius 26.209
lwrist 1.72765
lhand -24.0465 23.5071
lfingers 7.12502
lthumb 2.43243 53.473
rfemur -20.8984 5.70162 20.5372
rtibia 69.6482
rfoot -35.2094 0.901786
rtoes 3.431
lfemur -22.8666 5.95167 -27.0769
ltibia 28.0061
lfoot 13.8276 20.3671
ltoes 1.17648
978
root -2.78359 23.609 -2.38162 -184.965 -176.15 187.413
lowerback 9.20601 1.42553 -4.33329
upperback 3.18405 1.43846 -2.58413
thorax -1.8917 0.71268 -0.393062
lowerneck -7.70927 0.260481 -7.77883
upperneck 31.9971 0.127081 5.96616
head 11.6604 -0.152154 3.62064
rclavicle 1.37441e-014 -3.23771e-014
rhumerus -32.618 2.76923 -80.2802
rradius 43.0869
rwrist 9.01906
rhand -23.5398 1.20337
rfingers 7.12502
rthumb 2.92175 -28.7564
lclavicle 1.37441e-014 -3.23771e-014
lhumerus -35.3921 20.3575 72.3602
lradius 26.7022
lwrist 2.14521
lhand -24.1508 23.6248
lfingers 7.12502
lthumb 2.33168 53.5918
rfemur -21.2763 5.33942 20.3021
rtibia 70.5331
rfoot -35.1201 1.71297
rtoes 3.72185
lfemur -22.4534 5.54997 -27.0785
ltibia 27.508
lfoot 14.4119 19.7186
ltoes 0.479376
979
root -2.76767 23.5655 -2.34724 -184.96 -176.08 187.416
lowerback 9.14945 1.44433 -4.28819
upperback 3.25028 1.47378 -2.598
thorax -1.79129 0.728478 -0.433929
lowerneck -7.69582 0.408447 -7.24244
upperneck 31.9859 0.438771 5.29896
head 11.6357 -0.0262586 3.30812
rclavicle 8.34585e-015 2.11209e-015
rhumerus -32.5581 2.77665 -80.218
rradius 43.0079
rwrist 8.94591
rhand -23.2002 -0.0741427
rfingers 7.12502
rthumb 3.24976 -30.0291
lclavicle 8.34585e-015 2.11209e-015
lhumerus -35.2936 19.844 72.718
lradius 27.1754
lwrist 2.61139
lhand -24.1394 23.7149
lfingers 7.12502
lthumb 2.34269 53.6818
rfemur -21.6756 4.93821 20.1059
rtibia 71.4317
rfoot -34.9832 2.2942
rtoes 3.21875
lfemur -22.0313 5.07943 -27.041
ltibia 26.9455
lfoot 15.0765 19.1311
ltoes 0.258698
980
root -2.751 23.5245 -2.30588 -185.018 -176.07 187.588
lowerback 9.0748 1.46922 -4.38382
upperback 3.35185 1.50664 -2.65991
thorax -1.64598 0.741794 -0.44458
lowerneck -7.7456 0.465013 -7.08649
upperneck 31.8259 0.553173 5.11323
head 11.5757 0.0255297 3.21891
rclavicle 1.10263e-014 -1.05604e-014
rhumerus -32.4217 2.78859 -80.1356
rradius 42.8288
rwrist 8.90963
rhand -24.1748 1.59757
rfingers 7.12502
rthumb 2.30851 -28.3697
lclavicle 1.10263e-014 -1.05604e-014
lhumerus -35.1317 19.117 73.172
lradius 27.6255
lwrist 2.97119
lhand -24.0291 23.8301
lfingers 7.12502
lthumb 2.44922 53.7958
rfemur -21.9785 4.47238 19.7114
rtibia 72.3296
rfoot -34.9526 2.87296
rtoes 2.71655
lfemur -21.5167 4.51834 -27.187
ltibia 26.3679
lfoot 15.5879 18.8158
ltoes 1.24586
981
root -2.73307 23.4782 -2.26464 -185.092 -176.074 187.802
lowerback 9.06468 1.49297 -4.52049
upperback 3.40483 1.52768 -2.7403
thorax -1.58677 0.750633 -0.452632
lowerneck -7.66818 0.40329 -7.58002
upperneck 31.5927 0.36842 5.74332
head 11.4726 -0.0379977 3.51309
rclavicle 1.55766e-014 -2.83765e-014
rhumerus -32.3512 2.6736 -80.0317
rradius 42.5872
rwrist 9.10494
rhand -24.6021 2.57536
rfingers 7.12502
rthumb 1.89584 -27.396
lclavicle 1.55766e-014 -2.83765e-014
lhumerus -35.0687 18.317 73.5737
lradius 28.0156
lwrist 3.46002
lhand -24.2219 23.4954
lfingers 7.12502
lthumb 2.26306 53.4632
rfemur -22.2525 4.01987 19.2536
rtibia 73.2144
rfoot -34.8718 3.52501
rtoes 2.24402
lfemur -20.9972 3.95483 -27.4081
ltibia 25.7957
lfoot 16.036 18.562
ltoes 2.01351
982
root -2.71457 23.4332 -2.22908 -185.1 -175.99 187.844
lowerback 9.10347 1.52693 -4.48517
upperback 3.39214 1.57175 -2.76914
thorax -1.62078 0.773485 -0.5081
lowerneck -7.59763 0.333356 -7.53946
upperneck 31.6771 0.31706 5.53044
head 11.4994 -0.0837866 3.42211
rclavicle 1.02654e-014 9.14409e-015
rhumerus -32.3633 2.64638 -79.9622
rradius 42.4213
rwrist 9.17119
rhand -23.7453 1.29312
rfingers 7.12502
rthumb 2.72337 -28.6692
lclavicle 1.02654e-014 9.14409e-015
lhumerus -35.101 17.7696 73.8376
lradius 28.3867
lwrist 3.76956
lhand -24.5614 23.1533
lfingers 7.12502
lthumb 1.93514 53.1243
rfemur -22.6081 3.68923 19.0089
rtibia 74.0505
rfoot -34.7487 4.11287
rtoes 1.5476
lfemur -20.5839 3.49548 -27.466
ltibia 25.2732
lfoot 16.427 18.3221
ltoes 1.88519
